# xmcd
#
# Track frame offsets:
#	150
#	19517
#	31641
#	45456
#	61197
#	73203
#	86514
#	98303
#	112753
#	126388
#	141461
#
# Disc length: 2073 seconds
#
# Revision: 2
# Processed by: cddbd v1.5.2PL0 Copyright (c) Steve Scherf et al.
# Submitted via: audiograbber 1.83.01
#
DISCID=8408170b
DTITLE=Hank Williams, Jr. - One Night Stands
DYEAR=1977
DGENRE=Country
TTITLE0=One Night Stands
TTITLE1=Mobile Boogie
TTITLE2=Angels Get Lonesome Sometimes
TTITLE3=I'm Not Responsible
TTITLE4=Building Memories
TTITLE5=Honey Won't You Call Me
TTITLE6=She's Still The Star (On The Stage Of My Mind)
TTITLE7=All By Myself
TTITLE8=Cherokee
TTITLE9=Daddy I Need You Tonight
TTITLE10=It's Different With You
EXTD=
EXTT0=
EXTT1=
EXTT2=
EXTT3=
EXTT4=
EXTT5=
EXTT6=
EXTT7=
EXTT8=
EXTT9=
EXTT10=
PLAYORDER=
